<?xml version="1.0" encoding="UTF-8"?>
<svg id="Layer_1" data-name="Layer 1" xmlns="http://www.w3.org/2000/svg" viewBox="0 0 1692.87 475.34">
  <defs>
    <style>
      .cls-1 {
        fill: #fff;
      }

      .cls-2 {
        fill: #70aa33;
      }

      .cls-3 {
        fill: #482984;
      }

      .cls-4 {
        fill: #81c83d;
      }

      .cls-5 {
        fill: #693faa;
      }

      .cls-6 {
        fill: #606060;
        font-family: GmarketSansTTFMedium, 'Gmarket Sans TTF';
        font-size: 88.17px;
      }
    </style>
  </defs>
  <text class="cls-6" transform="translate(427.27 97.12)"><tspan x="0" y="0">가지가지 판다</tspan></text>
  <g>
    <path class="cls-5" d="m631.64,457.03c-2.15,0-3.9-1.75-3.9-3.9V159.86c0-2.15,1.75-3.9,3.9-3.9h58.04c2.15,0,3.9,1.75,3.9,3.9v103.24h30.44c2.15,0,3.9,1.75,3.9,3.9v56.32c0,2.15-1.75,3.9-3.9,3.9h-30.44v125.91c0,2.15-1.75,3.9-3.9,3.9h-58.04Zm-209.13-13.74c-2.15,0-3.9-1.75-3.9-3.9v-54.94c0-2.14,1.73-3.89,3.88-3.9,33.35-.22,59.06-12.05,76.4-35.18,17.6-23.46,26.52-56.87,26.52-99.31v-22.54h-102.9c-2.15,0-3.9-1.75-3.9-3.9v-52.89c0-2.15,1.75-3.9,3.9-3.9h165.86c2.15,0,3.9,1.75,3.9,3.9v79.33c0,39.77-6.94,74.87-20.62,104.32-13.77,29.64-33.67,52.78-59.15,68.79-25.48,16.01-55.75,24.12-89.99,24.12Z"/>
    <path class="cls-5" d="m422.51,166.73h165.86v79.33c0,39.38-6.75,73.61-20.26,102.68-13.51,29.08-32.74,51.46-57.69,67.13-24.96,15.68-54.26,23.52-87.91,23.52v-54.94c34.8-.22,61.3-12.47,79.5-36.74,18.2-24.26,27.3-58.15,27.3-101.65v-26.44h-106.8v-52.89Zm301.51,156.59h-34.34v129.81h-58.04V159.86h58.04v107.14h34.34v56.32Z"/>
    <path class="cls-5" d="m970.23,457.03c-2.15,0-3.9-1.75-3.9-3.9V159.86c0-2.15,1.75-3.9,3.9-3.9h58.04c2.15,0,3.9,1.75,3.9,3.9v293.27c0,2.15-1.75,3.9-3.9,3.9h-58.04Zm-220.47-13.74c-1.03,0-2.01-.41-2.74-1.13-.74-.73-1.16-1.73-1.16-2.77v-58.38c0-1.98,1.49-3.65,3.46-3.88,13.07-1.47,24.9-8.67,35.18-21.41,10.59-13.13,19.13-31.53,25.37-54.71,6.02-22.38,9.52-48.32,10.41-77.16h-62.27c-2.15,0-3.9-1.75-3.9-3.9v-53.23c0-2.15,1.75-3.9,3.9-3.9h187.5c2.15,0,3.9,1.75,3.9,3.9v53.23c0,2.15-1.75,3.9-3.9,3.9h-59.05c-.8,24.33-3.1,47.26-6.85,68.24l84.11,109.2c.64.83.92,1.88.77,2.91-.14,1.04-.69,1.97-1.53,2.59l-46.02,34.34c-.68.51-1.5.78-2.33.78-.19,0-.38-.01-.58-.04-1.03-.15-1.95-.71-2.57-1.55l-55.2-75.09c-11.68,23.73-26.29,42.47-43.5,55.78-18.8,14.54-39.98,22.04-62.96,22.28h-.04Z"/>
    <path class="cls-5" d="m875.45,293.11l85.16,110.58-46.02,34.34-59.06-80.36c-11.91,26.1-26.96,46.19-45.16,60.27-18.2,14.08-38.41,21.23-60.61,21.46v-58.38c14.19-1.6,26.79-9.21,37.77-22.84,10.99-13.62,19.69-32.33,26.1-56.15,6.41-23.81,9.96-51.17,10.64-82.07h-66.28v-53.23h187.5v53.23h-62.84c-.69,26.33-3.09,50.71-7.21,73.15Zm152.81-133.24v293.27h-58.04V159.86h58.04Z"/>
    <path class="cls-5" d="m1292.34,457.03c-2.15,0-3.9-1.75-3.9-3.9V159.86c0-2.15,1.75-3.9,3.9-3.9h58.04c2.15,0,3.9,1.75,3.9,3.9v103.24h30.44c2.15,0,3.9,1.75,3.9,3.9v56.32c0,2.15-1.75,3.9-3.9,3.9h-30.44v125.91c0,2.15-1.75,3.9-3.9,3.9h-58.04Zm-209.13-13.74c-2.15,0-3.9-1.75-3.9-3.9v-54.94c0-2.14,1.73-3.89,3.88-3.9,33.35-.22,59.06-12.05,76.4-35.18,17.6-23.46,26.52-56.87,26.52-99.31v-22.54h-102.9c-2.15,0-3.9-1.75-3.9-3.9v-52.89c0-2.15,1.75-3.9,3.9-3.9h165.86c2.15,0,3.9,1.75,3.9,3.9v79.33c0,39.76-6.94,74.86-20.62,104.32-13.77,29.64-33.67,52.78-59.15,68.79-25.48,16.01-55.75,24.12-89.99,24.12Z"/>
    <path class="cls-5" d="m1083.21,166.73h165.86v79.33c0,39.38-6.76,73.61-20.26,102.68-13.51,29.08-32.74,51.46-57.69,67.13-24.96,15.68-54.26,23.52-87.91,23.52v-54.94c34.8-.22,61.3-12.47,79.5-36.74,18.2-24.26,27.3-58.15,27.3-101.65v-26.44h-106.8v-52.89Zm301.51,156.59h-34.34v129.81h-58.04V159.86h58.04v107.14h34.34v56.32Z"/>
    <path class="cls-5" d="m1630.93,457.03c-2.15,0-3.9-1.75-3.9-3.9V159.86c0-2.15,1.75-3.9,3.9-3.9h58.04c2.15,0,3.9,1.75,3.9,3.9v293.27c0,2.15-1.75,3.9-3.9,3.9h-58.04Zm-220.46-13.74c-1.03,0-2.01-.41-2.74-1.13-.74-.73-1.16-1.73-1.16-2.77v-58.38c0-1.98,1.49-3.65,3.46-3.88,13.07-1.47,24.9-8.67,35.17-21.41,10.59-13.13,19.13-31.53,25.37-54.71,6.03-22.38,9.52-48.33,10.41-77.16h-62.27c-2.15,0-3.9-1.75-3.9-3.9v-53.23c0-2.15,1.75-3.9,3.9-3.9h187.5c2.15,0,3.9,1.75,3.9,3.9v53.23c0,2.15-1.75,3.9-3.9,3.9h-59.05c-.8,24.34-3.1,47.26-6.86,68.24l84.11,109.2c.64.83.92,1.88.77,2.91-.14,1.04-.7,1.97-1.53,2.59l-46.02,34.34c-.68.51-1.5.78-2.33.78-.19,0-.38-.01-.58-.04-1.03-.15-1.95-.71-2.57-1.55l-55.2-75.09c-11.68,23.73-26.29,42.47-43.5,55.78-18.8,14.54-39.98,22.04-62.95,22.28h-.04Z"/>
    <path class="cls-5" d="m1536.15,293.11l85.17,110.58-46.02,34.34-59.07-80.36c-11.91,26.1-26.96,46.19-45.16,60.27-18.2,14.08-38.41,21.23-60.61,21.46v-58.38c14.19-1.6,26.79-9.21,37.77-22.84,10.99-13.62,19.69-32.33,26.1-56.15,6.41-23.81,9.96-51.17,10.64-82.07h-66.28v-53.23h187.5v53.23h-62.84c-.69,26.33-3.09,50.71-7.21,73.15Zm152.82-133.24v293.27h-58.04V159.86h58.04Z"/>
  </g>
  <g>
    <path class="cls-3" d="m105.23,293.4c129.74-49.31,163.45-162.53,163.45-162.53l72.74-36.53-18.95-25.64-77.19,38.77s-33.72,113.21-163.45,162.53c-106.4,40.44-97.48,145.82-38.87,187.37-35.2-49.22-27.67-129.79,62.27-163.97Z"/>
    <path class="cls-5" d="m360.83,120.6l-19.41-26.26-72.74,36.53s-33.72,113.21-163.45,162.53C15.3,327.58,7.76,408.15,42.96,457.37c12.85,9.11,28.09,15.17,45.03,16.78,94.19,8.96,225.29-25.77,272.84-353.55Z"/>
    <path class="cls-2" d="m316.77,68.71c14.38-3.29,29.39-18.58,37.77-28.35l3.06-20.81c.71-4.85-1.04-9.74-4.69-13.03l-6.46-5.83c-1.1-.99-2.78-.9-3.75.22-4.2,4.89-14.67,17.06-16.34,19-.16.19-.28.39-.37.62-10.95,27.11-33.81,31.65-47.24,31.79-8.86.1-17.55,2.4-25.19,6.87-47.77,27.95-43.34,59.22-39.68,70.56.63,1.95,3.14,2.38,4.49.83,4.7-5.41,11.78-10.57,19.58-15.24,34.39-44.69,60.25-42.39,78.83-46.63Z"/>
    <path class="cls-4" d="m352.93,60.72c-.78-.58-1.16-1.52-1.02-2.49l2.63-17.88c-8.38,9.77-23.4,25.07-37.77,28.35-18.58,4.25-44.43,1.95-78.83,46.63,13.88-8.31,30.06-15.03,39.31-18.58,2.36-.9,4.46,1.73,3.12,3.87-35.03,55.65-1.39,79.63,9.91,85.74,1.62.88,3.58-.2,3.8-2.03,6.33-52.9,29.15-60.67,32.83-61.58.31-.08.61-.1.93-.07,20.85,2.06,32.83,34.04,37.57,50.11.75,2.53,4.38,2.46,5.08-.08,21.45-78.11-10.65-106.86-17.55-111.99Z"/>
    <path class="cls-1" d="m98.4,313.55c-26.29,8.41-47.35,30.16-54.7,56.8-2,7.27,9.28,10.37,11.28,3.11,6.24-22.65,24.12-41.46,46.53-48.63,7.14-2.29,4.09-13.59-3.11-11.28h0Z"/>
    <path class="cls-1" d="m134.01,311.8c2.64-1.71,5.43-3.19,8.33-4.42l-1.4.59c1.52-.64,3.07-1.21,4.65-1.71,1.44-.46,2.72-1.37,3.5-2.69s1.04-3.1.59-4.51-1.34-2.78-2.69-3.5-3-1.07-4.51-.59c-5.04,1.6-9.93,3.84-14.37,6.72-1.27.82-2.28,2.01-2.69,3.5-.39,1.4-.21,3.26.59,4.51s2,2.35,3.5,2.69,3.18.27,4.51-.59h0Z"/>
  </g>
</svg>